# xmcd
#
# Track frame offsets: 
#        150
#        12263
#        25089
#        39412
#        56812
#        69394
#        85085
#        102903
#        119603
#        133602
#
# Disc length: 1907 seconds
#
# Revision: 0
# Processed by: cddbd v1.5.2PL0 Copyright (c) Steve Scherf et al.
# Submitted via: ExactAudioCopy v0.95b4
#
DISCID=7f07710a
DTITLE=Anne Murray - A Country Collection
DYEAR=1980
DGENRE=Pop
TTITLE0=Walk Right Back
TTITLE1=For No reason At All
TTITLE2=(He Can't Help It If) He's Not You
TTITLE3=We Don't Make Love Anymore
TTITLE4=Tennessee Waltz
TTITLE5=Let's Keep It That Way
TTITLE6=Wintery Feeling
TTITLE7=Do You Think Of Me
TTITLE8=Just To Feel This Love From You
TTITLE9=Heaven Is Here
EXTD=
EXTT0=
EXTT1=
EXTT2=
EXTT3=
EXTT4=
EXTT5=
EXTT6=
EXTT7=
EXTT8=
EXTT9=
PLAYORDER=
